<?xml version="1.0" encoding="utf-8"?>
<!-- Generator: Adobe Illustrator 16.0.3, SVG Export Plug-In . SVG Version: 6.00 Build 0)  -->
<!DOCTYPE svg PUBLIC "-//W3C//DTD SVG 1.1//EN" "http://www.w3.org/Graphics/SVG/1.1/DTD/svg11.dtd">
<svg version="1.1" id="Layer_1" xmlns="http://www.w3.org/2000/svg" xmlns:xlink="http://www.w3.org/1999/xlink" x="0px" y="0px"
	 width="20px" height="20px" viewBox="0 0 20 20" enable-background="new 0 0 20 20" xml:space="preserve">
<path fill="#010101" d="M18.877,8.877l-7.755,0V1.124C11.123,0.5,10.623,0,9.999,0C9.377,0,8.877,0.5,8.877,1.123v7.754l-7.753,0
	C0.5,8.877,0,9.377,0,10.001c0,0.622,0.5,1.122,1.123,1.122h7.754v7.754c0,0.623,0.5,1.123,1.124,1.123
	c0.621,0,1.122-0.5,1.122-1.123v-7.754h7.754c0.623,0,1.123-0.5,1.123-1.124C20,9.378,19.5,8.877,18.877,8.877z"/>
</svg>
