<svg xmlns="http://www.w3.org/2000/svg" viewBox="0 0 24 24"><defs><style>.cls-1{fill:#ff0;}</style></defs><title>twitter</title><g id="Layer_2" data-name="Layer 2"><g id="homepage"><g id="footer"><path class="cls-1" d="M12,0A12,12,0,1,0,24,12,12,12,0,0,0,12,0Zm6,9.93a7.89,7.89,0,0,1-7.94,8.28A8.47,8.47,0,0,1,5.79,17a5.71,5.71,0,0,0,4.14-1.16A2.68,2.68,0,0,1,7.37,13.9a2,2,0,0,0,1.24-.08,2.82,2.82,0,0,1-2.24-2.73,2.34,2.34,0,0,0,1.24.33A2.76,2.76,0,0,1,6.79,7.7a7.86,7.86,0,0,0,5.71,2.89A2.76,2.76,0,0,1,15.23,7.2a2.82,2.82,0,0,1,2.07.91A5.47,5.47,0,0,0,19,7.45,3.24,3.24,0,0,1,17.79,9a9.12,9.12,0,0,0,1.58-.41A10.38,10.38,0,0,1,18,9.93Z"/></g></g></g></svg>