<svg xmlns="http://www.w3.org/2000/svg" viewBox="0 0 289.96 288.82"><title>smile03</title><g id="Layer_2" data-name="Layer 2"><g id="homepage"><g id="_2-sad" data-name="2-sad"><path d="M77,111.12a10.74,10.74,0,0,1,21.48,0,4.83,4.83,0,1,0,9.66,0,20.4,20.4,0,0,0-40.8,0,4.83,4.83,0,1,0,9.66,0Z"/><path d="M202.25,90.72a20.43,20.43,0,0,0-20.41,20.4,4.84,4.84,0,0,0,9.67,0,10.74,10.74,0,0,1,21.48,0,4.83,4.83,0,0,0,9.66,0A20.42,20.42,0,0,0,202.25,90.72Z"/><path d="M145,175a80.75,80.75,0,0,0-69.46,40,4.83,4.83,0,0,0,8.35,4.87,70.66,70.66,0,0,1,122.21,0,4.83,4.83,0,1,0,8.35-4.87A80.73,80.73,0,0,0,145,175Z"/><path d="M256,13.59A20.41,20.41,0,0,1,276.36,34V254.84A20.41,20.41,0,0,1,256,275.23H34a20.41,20.41,0,0,1-20.39-20.39V34A20.42,20.42,0,0,1,34,13.59H256M256,0H34A34,34,0,0,0,0,34V254.84a34,34,0,0,0,34,34H256a34,34,0,0,0,34-34V34A34,34,0,0,0,256,0Z"/></g></g></g></svg>