<svg xmlns="http://www.w3.org/2000/svg" viewBox="0 0 289.96 288.82"><title>smile05</title><g id="Layer_2" data-name="Layer 2"><g id="homepage"><g id="_4-im-good" data-name="4-im-good"><path d="M237.52,172a5,5,0,0,0-6.37,3.08,91.27,91.27,0,0,1-172.34,0,5,5,0,0,0-9.46,3.3,101.28,101.28,0,0,0,191.25,0A5,5,0,0,0,237.52,172Z"/><circle cx="85.63" cy="109.91" r="21.14"/><path d="M85.63,98.78A11.13,11.13,0,1,1,74.5,109.91,11.15,11.15,0,0,1,85.63,98.78Z"/><circle cx="204.33" cy="109.91" r="21.14"/><path d="M204.33,98.78a11.13,11.13,0,1,1-11.13,11.13A11.15,11.15,0,0,1,204.33,98.78Z"/><path d="M256,13.59A20.41,20.41,0,0,1,276.36,34V254.84A20.41,20.41,0,0,1,256,275.23H34a20.41,20.41,0,0,1-20.39-20.39V34A20.42,20.42,0,0,1,34,13.59H256M256,0H34A34,34,0,0,0,0,34V254.84a34,34,0,0,0,34,34H256a34,34,0,0,0,34-34V34A34,34,0,0,0,256,0Z"/></g></g></g></svg>