<svg xmlns="http://www.w3.org/2000/svg" viewBox="0 0 289.96 288.82"><title>smile04</title><g id="Layer_2" data-name="Layer 2"><g id="homepage"><g id="_3-no-feels" data-name="3-no-feels"><path d="M219.8,190.06H70.16a4.83,4.83,0,1,0,0,9.66H219.8a4.83,4.83,0,1,0,0-9.66Z"/><circle cx="87.71" cy="111.12" r="20.4"/><path d="M87.71,100.38A10.74,10.74,0,1,1,77,111.12,10.75,10.75,0,0,1,87.71,100.38Z"/><circle cx="202.25" cy="111.12" r="20.4"/><path d="M202.25,100.38a10.74,10.74,0,1,1-10.74,10.74A10.75,10.75,0,0,1,202.25,100.38Z"/><path d="M256,13.59A20.41,20.41,0,0,1,276.36,34V254.84A20.41,20.41,0,0,1,256,275.23H34a20.41,20.41,0,0,1-20.39-20.39V34A20.42,20.42,0,0,1,34,13.59H256M256,0H34A34,34,0,0,0,0,34V254.84a34,34,0,0,0,34,34H256a34,34,0,0,0,34-34V34A34,34,0,0,0,256,0Z"/></g></g></g></svg>