<svg xmlns="http://www.w3.org/2000/svg" viewBox="0 0 117.31 49"><defs><style>.cls-1{fill:#f2e500;}</style></defs><title>logo</title><g id="Layer_2" data-name="Layer 2"><g id="homepage"><g id="header"><path class="cls-1" d="M0,6.42H2.87V46.27H23.71V49H0Z"/><path class="cls-1" d="M55.34,9.76,40.06,49H36.83L53.69,6.46h3.59L73.92,49h-3.3Z"/><path class="cls-1" d="M108.8,30.14a8.67,8.67,0,0,0-5.52-3.52,5.81,5.81,0,0,0,4.09-3.3A13.42,13.42,0,0,0,109,16.51a10.37,10.37,0,0,0-2.73-7.19,8.9,8.9,0,0,0-6.67-2.95H82.16v3.1H99.05a6.62,6.62,0,0,1,5,2,7,7,0,0,1,2.08,5.1A10,10,0,0,1,104.07,23a6.2,6.2,0,0,1-5,2.65H82.16V28.3H99.05a8.79,8.79,0,0,1,6.38,2.53A8.13,8.13,0,0,1,108.09,37a9.1,9.1,0,0,1-2.66,6.56,8.63,8.63,0,0,1-6.38,2.77H92.72V49h6.9a10.81,10.81,0,0,0,8-3.55A12,12,0,0,0,111,37,11.25,11.25,0,0,0,108.8,30.14Z"/><path class="cls-1" d="M117.31,3.23a3.27,3.27,0,0,1-.26,1.32,3.06,3.06,0,0,1-.69,1,3,3,0,0,1-1,.66,3.05,3.05,0,0,1-1.2.23,3.37,3.37,0,0,1-1.29-.24,3.06,3.06,0,0,1-1-.68,3.2,3.2,0,0,1-.66-1A3.65,3.65,0,0,1,111,3.23a3.34,3.34,0,0,1,.25-1.32,3.06,3.06,0,0,1,.69-1,3.2,3.2,0,0,1,1-.66A3.31,3.31,0,0,1,114.15,0a3.14,3.14,0,0,1,2.21.89,3.06,3.06,0,0,1,.69,1A3.34,3.34,0,0,1,117.31,3.23Zm-.69,0a3.14,3.14,0,0,0-.19-1.08,2.72,2.72,0,0,0-.53-.85,2.41,2.41,0,0,0-.79-.54,2.39,2.39,0,0,0-1-.2,2.42,2.42,0,0,0-1,.2,2.46,2.46,0,0,0-.8.54,2.53,2.53,0,0,0-.52.85,2.92,2.92,0,0,0-.19,1.08,3,3,0,0,0,.17,1,2.69,2.69,0,0,0,.5.85,2.25,2.25,0,0,0,.78.57,2.44,2.44,0,0,0,1,.21,2.38,2.38,0,0,0,1-.19,2.3,2.3,0,0,0,.79-.55,2.79,2.79,0,0,0,.53-.84A3.15,3.15,0,0,0,116.62,3.23Zm-3.11,1.85h-.59V1.5h1.36a1.56,1.56,0,0,1,1,.25.9.9,0,0,1,.33.78.88.88,0,0,1-.27.71,1.22,1.22,0,0,1-.66.27l1,1.57H115l-.92-1.53h-.55Zm.65-2h.32a.66.66,0,0,0,.26-.08.4.4,0,0,0,.18-.16.57.57,0,0,0,.07-.31.4.4,0,0,0-.07-.26.58.58,0,0,0-.19-.15.83.83,0,0,0-.25-.06h-1v1Z"/></g></g></g></svg>